<svg width="341" height="332" viewBox="0 0 341 332" fill="none" xmlns="http://www.w3.org/2000/svg">
<path d="M309.55 84L283.05 151C251.695 157.333 232.49 163.106 211.05 162.5V160.5L247.05 140.5L248.55 143.5L257.05 139L252.55 131L244.05 135L245.55 138L209.05 158.5H206.05L200.05 154.5V152.5L255.55 119L257.55 122L266.05 117L261.05 108.5L252.05 113.5L254.05 116.5L201.05 148.5H198.05L195.05 143.5V140.5L225.55 121L227.55 123.5L234.55 118.5L229.05 110.5L221.05 115.5L223.55 118.5L198.05 135.5H196.05C196.286 130.638 198.033 127.213 202.55 122C216.625 104.189 224.803 94.3845 239.55 77L309.55 84Z" fill="#F0B90B" />
<path d="M195.05 140.5L225.55 121L227.55 123.5L234.55 118.5L229.05 110.5L221.05 115.5L223.55 118.5L198.05 135.5H196.05C195.463 137.485 195.274 138.574 195.05 140.5ZM195.05 140.5V143.5L198.05 148.5M198.05 148.5H201.05L254.05 116.5L252.05 113.5L261.05 108.5L266.05 117L257.55 122L255.55 119L200.05 152.5M198.05 148.5C198.499 150.269 198.953 151.135 200.05 152.5M200.05 152.5V154.5L206.05 158.5M206.05 158.5H209.05L245.55 138L244.05 135L252.55 131L257.05 139L248.55 143.5L247.05 140.5L211.05 160.5V162.5C208.775 161.168 207.717 160.266 206.05 158.5Z" fill="EAEAEA" />
<path d="M31.0501 249.544L57.5501 182.544C88.9055 176.21 108.11 170.438 129.55 171.044V173.044L93.5501 193.044L92.0501 190.044L83.5501 194.544L88.0501 202.544L96.5501 198.544L95.0501 195.544L131.55 175.044H134.55L140.55 179.044V181.044L85.0501 214.544L83.0501 211.544L74.5501 216.544L79.5501 225.044L88.5501 220.044L86.5501 217.044L139.55 185.044H142.55L145.55 190.044V193.044L115.05 212.544L113.05 210.044L106.05 215.044L111.55 223.044L119.55 218.044L117.05 215.044L142.55 198.044H144.55C144.314 202.906 142.567 206.331 138.05 211.544C123.975 229.355 115.797 239.159 101.05 256.544L31.0501 249.544Z" fill="#F0B90B" />
<path d="M145.55 193.044L115.05 212.544L113.05 210.044L106.05 215.044L111.55 223.044L119.55 218.044L117.05 215.044L142.55 198.044H144.55C145.137 196.059 145.326 194.97 145.55 193.044ZM145.55 193.044V190.044L142.55 185.044M142.55 185.044H139.55L86.55 217.044L88.55 220.044L79.55 225.044L74.55 216.544L83.05 211.544L85.05 214.544L140.55 181.044M142.55 185.044C142.101 183.275 141.647 182.409 140.55 181.044M140.55 181.044V179.044L134.55 175.044M134.55 175.044H131.55L95.05 195.544L96.55 198.544L88.05 202.544L83.55 194.544L92.05 190.044L93.55 193.044L129.55 173.044V171.044C131.825 172.376 132.883 173.278 134.55 175.044Z" fill="EAEAEA" />
<path d="M176.071 328.432L131.297 271.982C141.49 241.661 146.093 222.143 157.338 203.878L159.07 204.878L158.391 246.055L155.042 245.854L154.69 255.465L163.868 255.568L164.654 246.207L161.306 246.006L161.802 204.146L163.302 201.548L169.766 198.352L171.498 199.352L172.76 264.166L169.162 264.398L169.242 274.26L179.103 274.18L179.273 263.885L175.675 264.117L174.462 202.218L175.962 199.62L181.792 199.522L184.391 201.022L186.028 237.186L182.863 237.668L183.693 246.23L193.371 245.467L193.041 236.039L189.193 236.704L187.221 206.12L188.221 204.388C192.313 207.023 194.406 210.249 196.662 216.767C205.049 237.862 209.451 249.847 217.133 271.31L176.071 328.432Z" fill="#F0B90B" />
<path d="M184.391 201.022L186.028 237.186L182.863 237.668L183.693 246.23L193.371 245.467L193.041 236.039L189.193 236.704L187.221 206.12L188.221 204.388C186.795 202.888 185.946 202.179 184.391 201.022ZM184.391 201.022L181.793 199.522L175.962 199.62M175.962 199.62L174.462 202.218L175.675 264.117L179.273 263.885L179.103 274.18L169.242 274.26L169.162 264.399L172.76 264.166L171.498 199.352M175.962 199.62C174.206 199.125 173.229 199.084 171.498 199.352M171.498 199.352L169.766 198.352L163.302 201.548M163.302 201.548L161.802 204.146L161.306 246.006L164.654 246.207L163.868 255.568L154.69 255.465L155.043 245.854L158.391 246.055L159.07 204.878L157.338 203.878C159.629 202.574 160.939 202.109 163.302 201.548Z" fill="EAEAEA" />
<path d="M27.1122 87.2719L98.3859 76.7216C119.549 100.709 134.15 114.455 144.345 133.325L142.613 134.325L107.293 113.149L109.141 110.349L100.994 105.238L96.3154 113.135L104.03 118.497L105.878 115.698L141.881 137.057L143.381 139.656L142.917 146.852L141.185 147.852L84.4231 116.537L86.0212 113.305L77.4411 108.444L72.5799 117.024L81.41 122.318L83.0081 119.086L137.221 148.986L138.721 151.584L135.891 156.682L133.293 158.182L101.155 141.518L102.32 138.536L94.4901 134.974L90.3119 143.737L98.642 148.165L99.9901 144.5L127.463 158.084L128.463 159.816C124.134 162.043 120.294 162.242 113.521 160.937C91.0584 157.653 78.4789 155.473 56.0501 151.394L27.1122 87.2719Z" fill="#F0B90B" />
<path d="M133.293 158.182L101.155 141.518L102.32 138.536L94.4901 134.974L90.3119 143.737L98.642 148.165L99.9901 144.5L127.463 158.084L128.463 159.816C130.474 159.332 131.513 158.95 133.293 158.182ZM133.293 158.182L135.891 156.682L138.721 151.584M138.721 151.584L137.221 148.986L83.008 119.086L81.41 122.318L72.5798 117.024L77.441 108.444L86.0212 113.305L84.4231 116.537L141.185 147.852M138.721 151.584C140.028 150.31 140.552 149.484 141.185 147.852M141.185 147.852L142.917 146.852L143.381 139.656M143.381 139.656L141.881 137.057L105.878 115.698L104.03 118.497L96.3154 113.135L100.994 105.238L109.141 110.349L107.293 113.149L142.613 134.325L144.345 133.325C144.329 135.961 144.077 137.329 143.381 139.656Z" fill="EAEAEA" />
<path d="M311.321 244.66L240.047 255.21C218.885 231.222 204.283 217.477 194.088 198.606L195.82 197.606L231.141 218.783L229.292 221.582L237.44 226.694L242.118 218.796L234.404 213.435L232.556 216.234L196.552 194.874L195.052 192.276L195.516 185.08L197.248 184.08L254.01 215.395L252.412 218.627L260.992 223.488L265.853 214.908L257.023 209.613L255.425 212.845L201.212 182.946L199.712 180.348L202.542 175.25L205.141 173.75L237.278 190.414L236.113 193.396L243.943 196.958L248.121 188.195L239.791 183.767L238.443 187.432L210.971 173.848L209.971 172.116C214.299 169.889 218.14 169.69 224.912 170.995C247.375 174.279 259.954 176.459 282.383 180.538L311.321 244.66Z" fill="#F0B90B" />
<path d="M205.141 173.75L237.278 190.414L236.113 193.396L243.943 196.958L248.121 188.195L239.791 183.767L238.443 187.432L210.971 173.848L209.971 172.116C207.959 172.6 206.921 172.981 205.141 173.75ZM205.141 173.75L202.543 175.25L199.712 180.348M199.712 180.348L201.212 182.946L255.425 212.846L257.023 209.613L265.853 214.908L260.992 223.488L252.412 218.627L254.01 215.395L197.248 184.08M199.712 180.348C198.405 181.622 197.882 182.448 197.248 184.08M197.248 184.08L195.516 185.08L195.052 192.276M195.052 192.276L196.552 194.874L232.556 216.234L234.404 213.435L242.118 218.796L237.44 226.694L229.293 221.582L231.141 218.783L195.82 197.606L194.088 198.606C194.104 195.971 194.356 194.603 195.052 192.276Z" fill="EAEAEA" />
<path d="M167.362 3.50001L212.136 59.9497C201.943 90.271 197.34 109.789 186.095 128.054L184.363 127.054L185.043 85.8766L188.391 86.0776L188.744 76.4663L179.565 76.3635L178.78 85.7247L182.128 85.9256L181.631 127.786L180.131 130.384L173.667 133.58L171.935 132.58L170.673 67.7654L174.271 67.5333L174.191 57.6721L164.33 57.7522L164.16 68.0465L167.758 67.8144L168.971 129.714L167.471 132.312L161.641 132.41L159.043 130.91L157.405 94.7461L160.57 94.2641L159.74 85.7019L150.062 86.465L150.392 95.8933L154.24 95.2282L156.213 125.812L155.213 127.544C151.12 124.909 149.027 121.683 146.771 115.165C138.384 94.0694 133.982 82.0852 126.3 60.6218L167.362 3.50001Z" fill="#F0B90B" />
<path d="M159.043 130.91L157.405 94.7461L160.57 94.2641L159.74 85.7019L150.062 86.465L150.392 95.8932L154.24 95.2282L156.213 125.812L155.213 127.544C156.638 129.044 157.487 129.753 159.043 130.91ZM159.043 130.91L161.641 132.41L167.471 132.312M167.471 132.312L168.971 129.714L167.758 67.8144L164.16 68.0465L164.33 57.7522L174.191 57.6721L174.271 67.5333L170.673 67.7654L171.935 132.58M167.471 132.312C169.228 132.807 170.204 132.848 171.935 132.58M171.935 132.58L173.667 133.58L180.131 130.384M180.131 130.384L181.631 127.786L182.128 85.9256L178.78 85.7247L179.565 76.3634L188.744 76.4663L188.391 86.0775L185.043 85.8766L184.363 127.053L186.095 128.053C183.804 129.357 182.494 129.823 180.131 130.384Z" fill="EAEAEA" />
<path d="M277.05 153.5V156H311.05V144H300.05V151H281.55L277.05 153.5Z" fill="#8B5CF6" />
<path d="M321.05 162H238.05V168H321.05V175H324.05L340.05 166V164L325.05 156H321.05V162Z" fill="#8B5CF6" />
<path d="M311.05 174H277.05V177L284.05 180H300.05V187H311.05V174Z" fill="#8B5CF6" />
<path d="M232.562 251.525L230.397 252.775L247.397 282.22L257.789 276.22L252.289 266.694L246.227 270.194L236.977 254.172L232.562 251.525Z" fill="#8B5CF6" />
<path d="M247.201 293.88L205.701 222L200.505 225L242.005 296.88L235.942 300.38L237.442 302.978L253.237 312.335L254.969 311.335L254.397 294.344L252.397 290.88L247.201 293.88Z" fill="#8B5CF6" />
<path d="M231.808 291.22L214.808 261.775L212.21 263.275L213.112 270.837L221.112 284.694L215.05 288.194L220.55 297.72L231.808 291.22Z" fill="#8B5CF6" />
<path d="M127.562 263.525L125.397 262.275L108.397 291.72L118.789 297.72L124.289 288.194L118.227 284.694L127.477 268.672L127.562 263.525Z" fill="#8B5CF6" />
<path d="M98.2007 297.38L139.701 225.5L134.505 222.5L93.0046 294.38L86.9424 290.88L85.4424 293.478L85.2366 311.835L86.9687 312.835L101.397 303.844L103.397 300.38L98.2007 297.38Z" fill="#8B5CF6" />
<path d="M92.8084 282.72L109.808 253.275L107.21 251.775L101.112 256.337L93.1123 270.194L87.0501 266.694L81.5501 276.22L92.8084 282.72Z" fill="#8B5CF6" />
<path d="M63.05 177.5V175H29.05V187H40.05V180H58.55L63.05 177.5Z" fill="#8B5CF6" />
<path d="M19.05 169H102.05V163H19.05V156H16.05L0.0500488 165V167L15.05 175H19.05V169Z" fill="#8B5CF6" />
<path d="M29.05 157H63.05V154L56.05 151H40.05V144H29.05V157Z" fill="#8B5CF6" />
<path d="M106.777 81.3096L108.942 80.0596L91.9424 50.6147L81.55 56.6147L87.05 66.141L93.1122 62.641L102.362 78.6625L106.777 81.3096Z" fill="#8B5CF6" />
<path d="M92.1385 38.9545L133.639 110.835L138.835 107.835L97.3347 35.9545L103.397 32.4545L101.897 29.8564L86.1026 20.5L84.3706 21.5L84.9424 38.4904L86.9424 41.9545L92.1385 38.9545Z" fill="#8B5CF6" />
<path d="M107.531 41.6147L124.531 71.0596L127.129 69.5596L126.227 61.9974L118.227 48.141L124.289 44.641L118.789 35.1147L107.531 41.6147Z" fill="#8B5CF6" />
<path d="M211.777 71.3096L213.942 72.5596L230.942 43.1147L220.55 37.1147L215.05 46.641L221.112 50.141L211.862 66.1625L211.777 71.3096Z" fill="#8B5CF6" />
<path d="M241.139 37.4545L199.639 109.335L204.835 112.335L246.335 40.4545L252.397 43.9545L253.897 41.3564L254.103 23L252.371 22L237.942 30.9904L235.942 34.4545L241.139 37.4545Z" fill="#8B5CF6" />
<path d="M246.531 52.1147L229.531 81.5596L232.129 83.0596L238.227 78.4974L246.227 64.641L252.289 68.141L257.789 58.6147L246.531 52.1147Z" fill="#8B5CF6" />
<circle cx="170.05" cy="165" r="30" fill="#F0B90B"/>
</svg>
