<svg width="341" height="332" viewBox="0 0 341 332" xmlns="http://www.w3.org/2000/svg">
<path  d="M309.55 84L283.05 151C251.695 157.333 232.49 163.106 211.05 162.5V160.5L247.05 140.5L248.55 143.5L257.05 139L252.55 131L244.05 135L245.55 138L209.05 158.5H206.05L200.05 154.5V152.5L255.55 119L257.55 122L266.05 117L261.05 108.5L252.05 113.5L254.05 116.5L201.05 148.5H198.05L195.05 143.5V140.5L225.55 121L227.55 123.5L234.55 118.5L229.05 110.5L221.05 115.5L223.55 118.5L198.05 135.5H196.05C196.286 130.638 198.033 127.213 202.55 122C216.625 104.189 224.803 94.3845 239.55 77L309.55 84Z" fill="currentColor" />
<path  d="M31.0501 249.544L57.5501 182.544C88.9055 176.21 108.11 170.438 129.55 171.044V173.044L93.5501 193.044L92.0501 190.044L83.5501 194.544L88.0501 202.544L96.5501 198.544L95.0501 195.544L131.55 175.044H134.55L140.55 179.044V181.044L85.0501 214.544L83.0501 211.544L74.5501 216.544L79.5501 225.044L88.5501 220.044L86.5501 217.044L139.55 185.044H142.55L145.55 190.044V193.044L115.05 212.544L113.05 210.044L106.05 215.044L111.55 223.044L119.55 218.044L117.05 215.044L142.55 198.044H144.55C144.314 202.906 142.567 206.331 138.05 211.544C123.975 229.355 115.797 239.159 101.05 256.544L31.0501 249.544Z" fill="currentColor" />
<path  d="M176.071 328.432L131.297 271.982C141.49 241.661 146.093 222.143 157.338 203.878L159.07 204.878L158.391 246.055L155.042 245.854L154.69 255.465L163.868 255.568L164.654 246.207L161.306 246.006L161.802 204.146L163.302 201.548L169.766 198.352L171.498 199.352L172.76 264.166L169.162 264.398L169.242 274.26L179.103 274.18L179.273 263.885L175.675 264.117L174.462 202.218L175.962 199.62L181.792 199.522L184.391 201.022L186.028 237.186L182.863 237.668L183.693 246.23L193.371 245.467L193.041 236.039L189.193 236.704L187.221 206.12L188.221 204.388C192.313 207.023 194.406 210.249 196.662 216.767C205.049 237.862 209.451 249.847 217.133 271.31L176.071 328.432Z" fill="currentColor" />
<path  d="M27.1122 87.2719L98.3859 76.7216C119.549 100.709 134.15 114.455 144.345 133.325L142.613 134.325L107.293 113.149L109.141 110.349L100.994 105.238L96.3154 113.135L104.03 118.497L105.878 115.698L141.881 137.057L143.381 139.656L142.917 146.852L141.185 147.852L84.4231 116.537L86.0212 113.305L77.4411 108.444L72.5799 117.024L81.41 122.318L83.0081 119.086L137.221 148.986L138.721 151.584L135.891 156.682L133.293 158.182L101.155 141.518L102.32 138.536L94.4901 134.974L90.3119 143.737L98.642 148.165L99.9901 144.5L127.463 158.084L128.463 159.816C124.134 162.043 120.294 162.242 113.521 160.937C91.0584 157.653 78.4789 155.473 56.0501 151.394L27.1122 87.2719Z" fill="currentColor" />
<path  d="M311.321 244.66L240.047 255.21C218.885 231.222 204.283 217.477 194.088 198.606L195.82 197.606L231.141 218.783L229.292 221.582L237.44 226.694L242.118 218.796L234.404 213.435L232.556 216.234L196.552 194.874L195.052 192.276L195.516 185.08L197.248 184.08L254.01 215.395L252.412 218.627L260.992 223.488L265.853 214.908L257.023 209.613L255.425 212.845L201.212 182.946L199.712 180.348L202.542 175.25L205.141 173.75L237.278 190.414L236.113 193.396L243.943 196.958L248.121 188.195L239.791 183.767L238.443 187.432L210.971 173.848L209.971 172.116C214.299 169.889 218.14 169.69 224.912 170.995C247.375 174.279 259.954 176.459 282.383 180.538L311.321 244.66Z" fill="currentColor" />
<path  d="M167.362 3.50001L212.136 59.9497C201.943 90.271 197.34 109.789 186.095 128.054L184.363 127.054L185.043 85.8766L188.391 86.0776L188.744 76.4663L179.565 76.3635L178.78 85.7247L182.128 85.9256L181.631 127.786L180.131 130.384L173.667 133.58L171.935 132.58L170.673 67.7654L174.271 67.5333L174.191 57.6721L164.33 57.7522L164.16 68.0465L167.758 67.8144L168.971 129.714L167.471 132.312L161.641 132.41L159.043 130.91L157.405 94.7461L160.57 94.2641L159.74 85.7019L150.062 86.465L150.392 95.8933L154.24 95.2282L156.213 125.812L155.213 127.544C151.12 124.909 149.027 121.683 146.771 115.165C138.384 94.0694 133.982 82.0852 126.3 60.6218L167.362 3.50001Z" fill="currentColor" />

<circle cx="170.05" cy="165" r="30" fill="currentColor"/>
</svg>
